<svg width="26" height="23" viewBox="0 0 26 23" fill="none" xmlns="http://www.w3.org/2000/svg">
<path d="M0 22.1667L12.8333 0L25.6667 22.1667H0ZM4.025 19.8333H21.6417L12.8333 4.66667L4.025 19.8333ZM12.8333 18.6667C13.1639 18.6667 13.441 18.5549 13.6646 18.3312C13.8882 18.1076 14 17.8306 14 17.5C14 17.1694 13.8882 16.8924 13.6646 16.6688C13.441 16.4451 13.1639 16.3333 12.8333 16.3333C12.5028 16.3333 12.2257 16.4451 12.0021 16.6688C11.7785 16.8924 11.6667 17.1694 11.6667 17.5C11.6667 17.8306 11.7785 18.1076 12.0021 18.3312C12.2257 18.5549 12.5028 18.6667 12.8333 18.6667ZM11.6667 15.1667H14V9.33333H11.6667V15.1667Z" fill="#BA1A1A"/>
</svg>
