<svg width="24" height="24" viewBox="0 0 24 24" fill="none" xmlns="http://www.w3.org/2000/svg">
<path d="M3.5 23.3333C2.85833 23.3333 2.30903 23.1049 1.85208 22.6479C1.39514 22.191 1.16667 21.6417 1.16667 21V7.84583C0.816667 7.63194 0.534722 7.35486 0.320833 7.01458C0.106944 6.67431 0 6.28056 0 5.83333V2.33333C0 1.69167 0.228472 1.14236 0.685417 0.685417C1.14236 0.228472 1.69167 0 2.33333 0H21C21.6417 0 22.191 0.228472 22.6479 0.685417C23.1049 1.14236 23.3333 1.69167 23.3333 2.33333V5.83333C23.3333 6.28056 23.2264 6.67431 23.0125 7.01458C22.7986 7.35486 22.5167 7.63194 22.1667 7.84583V21C22.1667 21.6417 21.9382 22.191 21.4813 22.6479C21.0243 23.1049 20.475 23.3333 19.8333 23.3333H3.5V23.3333M3.5 8.16667V21V21V21H19.8333V21V21V8.16667H3.5V8.16667M2.33333 5.83333H21V5.83333V5.83333V2.33333V2.33333V2.33333H2.33333V2.33333V2.33333V5.83333V5.83333V5.83333V5.83333M8.16667 14H15.1667V11.6667H8.16667V14V14M11.6667 14.5833V14.5833V14.5833V14.5833V14.5833V14.5833V14.5833V14.5833V14.5833V14.5833" fill="#FF7A00"/>
</svg>
