<svg width="22" height="22" viewBox="0 0 22 22" fill="none" xmlns="http://www.w3.org/2000/svg">
<path d="M5.5 16H6.56875L13.9 8.66875L12.8313 7.6L5.5 14.9312V16ZM4 17.5V14.3125L13.9 4.43125C14.05 4.29375 14.2156 4.1875 14.3969 4.1125C14.5781 4.0375 14.7688 4 14.9688 4C15.1687 4 15.3625 4.0375 15.55 4.1125C15.7375 4.1875 15.9 4.3 16.0375 4.45L17.0688 5.5C17.2188 5.6375 17.3281 5.8 17.3969 5.9875C17.4656 6.175 17.5 6.3625 17.5 6.55C17.5 6.75 17.4656 6.94062 17.3969 7.12188C17.3281 7.30313 17.2188 7.46875 17.0688 7.61875L7.1875 17.5H4ZM16 6.55L14.95 5.5L16 6.55ZM13.3562 8.14375L12.8313 7.6L13.9 8.66875L13.3562 8.14375Z" fill="#2563EB"/>
</svg>
