<svg width="25" height="25" viewBox="0 0 25 25" fill="none" xmlns="http://www.w3.org/2000/svg">
<path d="M6.25 7.5C5.5625 7.5 4.97396 7.25521 4.48438 6.76562C3.99479 6.27604 3.75 5.6875 3.75 5V2.5C3.75 1.8125 3.99479 1.22396 4.48438 0.734375C4.97396 0.244792 5.5625 0 6.25 0H18.75C19.4375 0 20.026 0.244792 20.5156 0.734375C21.0052 1.22396 21.25 1.8125 21.25 2.5V5C21.25 5.6875 21.0052 6.27604 20.5156 6.76562C20.026 7.25521 19.4375 7.5 18.75 7.5H6.25ZM6.25 5H18.75V2.5H6.25V5ZM2.5 25C1.8125 25 1.22396 24.7552 0.734375 24.2656C0.244792 23.776 0 23.1875 0 22.5V21.25H25V22.5C25 23.1875 24.7552 23.776 24.2656 24.2656C23.776 24.7552 23.1875 25 22.5 25H2.5ZM0 20L4.34375 10.2188C4.55208 9.76042 4.86458 9.40104 5.28125 9.14062C5.69792 8.88021 6.14583 8.75 6.625 8.75H18.375C18.8542 8.75 19.3021 8.88021 19.7188 9.14062C20.1354 9.40104 20.4479 9.76042 20.6562 10.2188L25 20H0ZM8.125 17.5H9.375C9.54167 17.5 9.6875 17.4375 9.8125 17.3125C9.9375 17.1875 10 17.0417 10 16.875C10 16.7083 9.9375 16.5625 9.8125 16.4375C9.6875 16.3125 9.54167 16.25 9.375 16.25H8.125C7.95833 16.25 7.8125 16.3125 7.6875 16.4375C7.5625 16.5625 7.5 16.7083 7.5 16.875C7.5 17.0417 7.5625 17.1875 7.6875 17.3125C7.8125 17.4375 7.95833 17.5 8.125 17.5ZM8.125 15H9.375C9.54167 15 9.6875 14.9375 9.8125 14.8125C9.9375 14.6875 10 14.5417 10 14.375C10 14.2083 9.9375 14.0625 9.8125 13.9375C9.6875 13.8125 9.54167 13.75 9.375 13.75H8.125C7.95833 13.75 7.8125 13.8125 7.6875 13.9375C7.5625 14.0625 7.5 14.2083 7.5 14.375C7.5 14.5417 7.5625 14.6875 7.6875 14.8125C7.8125 14.9375 7.95833 15 8.125 15ZM8.125 12.5H9.375C9.54167 12.5 9.6875 12.4375 9.8125 12.3125C9.9375 12.1875 10 12.0417 10 11.875C10 11.7083 9.9375 11.5625 9.8125 11.4375C9.6875 11.3125 9.54167 11.25 9.375 11.25H8.125C7.95833 11.25 7.8125 11.3125 7.6875 11.4375C7.5625 11.5625 7.5 11.7083 7.5 11.875C7.5 12.0417 7.5625 12.1875 7.6875 12.3125C7.8125 12.4375 7.95833 12.5 8.125 12.5ZM11.875 17.5H13.125C13.2917 17.5 13.4375 17.4375 13.5625 17.3125C13.6875 17.1875 13.75 17.0417 13.75 16.875C13.75 16.7083 13.6875 16.5625 13.5625 16.4375C13.4375 16.3125 13.2917 16.25 13.125 16.25H11.875C11.7083 16.25 11.5625 16.3125 11.4375 16.4375C11.3125 16.5625 11.25 16.7083 11.25 16.875C11.25 17.0417 11.3125 17.1875 11.4375 17.3125C11.5625 17.4375 11.7083 17.5 11.875 17.5ZM11.875 15H13.125C13.2917 15 13.4375 14.9375 13.5625 14.8125C13.6875 14.6875 13.75 14.5417 13.75 14.375C13.75 14.2083 13.6875 14.0625 13.5625 13.9375C13.4375 13.8125 13.2917 13.75 13.125 13.75H11.875C11.7083 13.75 11.5625 13.8125 11.4375 13.9375C11.3125 14.0625 11.25 14.2083 11.25 14.375C11.25 14.5417 11.3125 14.6875 11.4375 14.8125C11.5625 14.9375 11.7083 15 11.875 15ZM11.875 12.5H13.125C13.2917 12.5 13.4375 12.4375 13.5625 12.3125C13.6875 12.1875 13.75 12.0417 13.75 11.875C13.75 11.7083 13.6875 11.5625 13.5625 11.4375C13.4375 11.3125 13.2917 11.25 13.125 11.25H11.875C11.7083 11.25 11.5625 11.3125 11.4375 11.4375C11.3125 11.5625 11.25 11.7083 11.25 11.875C11.25 12.0417 11.3125 12.1875 11.4375 12.3125C11.5625 12.4375 11.7083 12.5 11.875 12.5ZM15.625 17.5H16.875C17.0417 17.5 17.1875 17.4375 17.3125 17.3125C17.4375 17.1875 17.5 17.0417 17.5 16.875C17.5 16.7083 17.4375 16.5625 17.3125 16.4375C17.1875 16.3125 17.0417 16.25 16.875 16.25H15.625C15.4583 16.25 15.3125 16.3125 15.1875 16.4375C15.0625 16.5625 15 16.7083 15 16.875C15 17.0417 15.0625 17.1875 15.1875 17.3125C15.3125 17.4375 15.4583 17.5 15.625 17.5ZM15.625 15H16.875C17.0417 15 17.1875 14.9375 17.3125 14.8125C17.4375 14.6875 17.5 14.5417 17.5 14.375C17.5 14.2083 17.4375 14.0625 17.3125 13.9375C17.1875 13.8125 17.0417 13.75 16.875 13.75H15.625C15.4583 13.75 15.3125 13.8125 15.1875 13.9375C15.0625 14.0625 15 14.2083 15 14.375C15 14.5417 15.0625 14.6875 15.1875 14.8125C15.3125 14.9375 15.4583 15 15.625 15ZM15.625 12.5H16.875C17.0417 12.5 17.1875 12.4375 17.3125 12.3125C17.4375 12.1875 17.5 12.0417 17.5 11.875C17.5 11.7083 17.4375 11.5625 17.3125 11.4375C17.1875 11.3125 17.0417 11.25 16.875 11.25H15.625C15.4583 11.25 15.3125 11.3125 15.1875 11.4375C15.0625 11.5625 15 11.7083 15 11.875C15 12.0417 15.0625 12.1875 15.1875 12.3125C15.3125 12.4375 15.4583 12.5 15.625 12.5Z" fill="#FF7A00"/>
</svg>
