<svg width="22" height="19" viewBox="0 0 22 19" fill="none" xmlns="http://www.w3.org/2000/svg">
<path d="M17 6C16.7167 6 16.4792 5.90417 16.2875 5.7125C16.0958 5.52083 16 5.28333 16 5C16 4.86667 16.0292 4.7375 16.0875 4.6125C16.1458 4.4875 16.2167 4.38333 16.3 4.3C16.5 4.1 16.9583 3.875 17.675 3.625C18.3917 3.375 18.75 3.25 18.75 3.25C18.6167 3.63333 18.4917 3.99167 18.375 4.325C18.275 4.60833 18.1625 4.88333 18.0375 5.15C17.9125 5.41667 17.8 5.6 17.7 5.7C17.6167 5.78333 17.5125 5.85417 17.3875 5.9125C17.2625 5.97083 17.1333 6 17 6ZM2 19C1.45 19 0.979167 18.8042 0.5875 18.4125C0.195833 18.0208 0 17.55 0 17V3C0 2.45 0.195833 1.97917 0.5875 1.5875C0.979167 1.19583 1.45 1 2 1H8C8.55 1 9.02083 1.19583 9.4125 1.5875C9.80417 1.97917 10 2.45 10 3V11.175C10.15 11.125 10.3083 11.0833 10.475 11.05C10.6417 11.0167 10.8167 11 11 11C11.8333 11 12.5417 11.2917 13.125 11.875C13.7083 12.4583 14 13.1667 14 14V16C14 16.2833 14.0958 16.5208 14.2875 16.7125C14.4792 16.9042 14.7167 17 15 17C15.2833 17 15.5208 16.9042 15.7125 16.7125C15.9042 16.5208 16 16.2833 16 16V11H15V9.575C14.1 9.19167 13.375 8.59167 12.825 7.775C12.275 6.95833 12 6.03333 12 5C12 3.61667 12.4875 2.4375 13.4625 1.4625C14.4375 0.4875 15.6167 0 17 0C18.3833 0 19.5625 0.4875 20.5375 1.4625C21.5125 2.4375 22 3.61667 22 5C22 6.03333 21.725 6.95833 21.175 7.775C20.625 8.59167 19.9 9.19167 19 9.575V11H18V16C18 16.8333 17.7083 17.5417 17.125 18.125C16.5417 18.7083 15.8333 19 15 19C14.1667 19 13.4583 18.7083 12.875 18.125C12.2917 17.5417 12 16.8333 12 16V14C12 13.7167 11.9042 13.4792 11.7125 13.2875C11.5208 13.0958 11.2833 13 11 13C10.7167 13 10.4792 13.0958 10.2875 13.2875C10.0958 13.4792 10 13.7167 10 14V17C10 17.55 9.80417 18.0208 9.4125 18.4125C9.02083 18.8042 8.55 19 8 19H2ZM17 8C17.8333 8 18.5417 7.70833 19.125 7.125C19.7083 6.54167 20 5.83333 20 5C20 4.16667 19.7083 3.45833 19.125 2.875C18.5417 2.29167 17.8333 2 17 2C16.1667 2 15.4583 2.29167 14.875 2.875C14.2917 3.45833 14 4.16667 14 5C14 5.83333 14.2917 6.54167 14.875 7.125C15.4583 7.70833 16.1667 8 17 8ZM2 17H8V15L6 17V14.175L8 12.175V10L6 12V9.175L8 7.175V5L6 7V4.175L7.175 3H2.825L4 4.175V7L2 5V7.175L4 9.175V12L2 10V12.175L4 14.175V17L2 15V17Z" fill="#FF7A00"/>
</svg>
