<svg width="80" height="48" viewBox="0 0 80 48" fill="none" xmlns="http://www.w3.org/2000/svg">
<path opacity="0.5" d="M5.6 48L0 42.4L21.2 21.2C23.5333 18.8667 26.3667 17.7 29.7 17.7C33.0333 17.7 35.8667 18.8667 38.2 21.2L42.8 25.8C43.6 26.6 44.55 27 45.65 27C46.75 27 47.7 26.6 48.5 25.8L66.3 8H56V0H80V24H72V13.7L54.1 31.5C51.7667 33.8333 48.9333 35 45.6 35C42.2667 35 39.4333 33.8333 37.1 31.5L32.4 26.8C31.6667 26.0667 30.7333 25.7 29.6 25.7C28.4667 25.7 27.5333 26.0667 26.8 26.8L5.6 48Z" fill="#16A34A"/>
</svg>
