<svg width="80" height="77" viewBox="0 0 80 77" fill="none" xmlns="http://www.w3.org/2000/svg">
<path opacity="0.5" d="M42.5121 30.8L37.1014 25.41L43.1884 19.25H27.0531V11.55H43.1884L37.0048 5.39L42.5121 0L57.971 15.4L42.5121 30.8ZM23.1884 77C21.0628 77 19.2432 76.246 17.7295 74.7381C16.2158 73.2302 15.4589 71.4175 15.4589 69.3C15.4589 67.1825 16.2158 65.3698 17.7295 63.8619C19.2432 62.354 21.0628 61.6 23.1884 61.6C25.314 61.6 27.1337 62.354 28.6473 63.8619C30.161 65.3698 30.9179 67.1825 30.9179 69.3C30.9179 71.4175 30.161 73.2302 28.6473 74.7381C27.1337 76.246 25.314 77 23.1884 77ZM61.8357 77C59.7101 77 57.8905 76.246 56.3768 74.7381C54.8631 73.2302 54.1063 71.4175 54.1063 69.3C54.1063 67.1825 54.8631 65.3698 56.3768 63.8619C57.8905 62.354 59.7101 61.6 61.8357 61.6C63.9613 61.6 65.781 62.354 67.2947 63.8619C68.8084 65.3698 69.5652 67.1825 69.5652 69.3C69.5652 71.4175 68.8084 73.2302 67.2947 74.7381C65.781 76.246 63.9613 77 61.8357 77ZM0 7.7V0H12.657L29.0821 34.65H56.1353L71.2077 7.7H80L62.9952 38.3075C62.2866 39.5908 61.3366 40.5854 60.1449 41.2913C58.9533 41.9971 57.649 42.35 56.2319 42.35H27.4396L23.1884 50.05H69.5652V57.75H23.1884C20.2899 57.75 18.0837 56.4987 16.57 53.9962C15.0564 51.4937 15.0081 48.9592 16.4251 46.3925L21.6425 36.96L7.72947 7.7H0Z" fill="#994700"/>
</svg>
