<svg width="32" height="32" viewBox="0 0 32 32" fill="none" xmlns="http://www.w3.org/2000/svg">
<rect width="32" height="32" rx="8" fill="#F6F3F2"/>
<path d="M15.9997 18.625C16.7288 18.625 17.3486 18.3698 17.859 17.8594C18.3695 17.349 18.6247 16.7292 18.6247 16C18.6247 15.2708 18.3695 14.651 17.859 14.1406C17.3486 13.6302 16.7288 13.375 15.9997 13.375C15.2705 13.375 14.6507 13.6302 14.1403 14.1406C13.6299 14.651 13.3747 15.2708 13.3747 16C13.3747 16.7292 13.6299 17.349 14.1403 17.8594C14.6507 18.3698 15.2705 18.625 15.9997 18.625ZM15.9997 17.575C15.5622 17.575 15.1903 17.4219 14.884 17.1156C14.5778 16.8094 14.4247 16.4375 14.4247 16C14.4247 15.5625 14.5778 15.1906 14.884 14.8844C15.1903 14.5781 15.5622 14.425 15.9997 14.425C16.4372 14.425 16.809 14.5781 17.1153 14.8844C17.4215 15.1906 17.5747 15.5625 17.5747 16C17.5747 16.4375 17.4215 16.8094 17.1153 17.1156C16.809 17.4219 16.4372 17.575 15.9997 17.575ZM15.9997 20.375C14.5802 20.375 13.2872 19.9788 12.1205 19.1865C10.9538 18.3941 10.108 17.3319 9.58301 16C10.108 14.6681 10.9538 13.6059 12.1205 12.8135C13.2872 12.0212 14.5802 11.625 15.9997 11.625C17.4191 11.625 18.7122 12.0212 19.8788 12.8135C21.0455 13.6059 21.8913 14.6681 22.4163 16C21.8913 17.3319 21.0455 18.3941 19.8788 19.1865C18.7122 19.9788 17.4191 20.375 15.9997 20.375ZM15.9997 19.2083C17.0983 19.2083 18.107 18.9191 19.0257 18.3406C19.9445 17.7622 20.6469 16.9819 21.133 16C20.6469 15.0181 19.9445 14.2378 19.0257 13.6594C18.107 13.0809 17.0983 12.7917 15.9997 12.7917C14.9011 12.7917 13.8924 13.0809 12.9736 13.6594C12.0549 14.2378 11.3525 15.0181 10.8663 16C11.3525 16.9819 12.0549 17.7622 12.9736 18.3406C13.8924 18.9191 14.9011 19.2083 15.9997 19.2083Z" fill="#FF7A00"/>
</svg>
