<svg width="36" height="36" viewBox="0 0 36 36" fill="none" xmlns="http://www.w3.org/2000/svg">
<g filter="url(#filter0_d_166_1056)">
<rect x="2" y="1" width="32" height="32" rx="8" fill="#FF7A00" shape-rendering="crispEdges"/>
<path d="M13.917 22.8333C13.5962 22.8333 13.3215 22.7191 13.093 22.4906C12.8646 22.2621 12.7503 21.9875 12.7503 21.6666V15.0895C12.5753 14.9826 12.4344 14.8441 12.3274 14.6739C12.2205 14.5038 12.167 14.3069 12.167 14.0833V12.3333C12.167 12.0125 12.2812 11.7378 12.5097 11.5093C12.7382 11.2809 13.0128 11.1666 13.3337 11.1666H22.667C22.9878 11.1666 23.2625 11.2809 23.491 11.5093C23.7194 11.7378 23.8337 12.0125 23.8337 12.3333V14.0833C23.8337 14.3069 23.7802 14.5038 23.6732 14.6739C23.5663 14.8441 23.4253 14.9826 23.2503 15.0895V21.6666C23.2503 21.9875 23.1361 22.2621 22.9076 22.4906C22.6791 22.7191 22.4045 22.8333 22.0837 22.8333H13.917ZM13.917 15.25V21.6666H22.0837V15.25H13.917ZM13.3337 14.0833H22.667V12.3333H13.3337V14.0833ZM16.2503 18.1666H19.7503V17H16.2503V18.1666Z" fill="white"/>
</g>
<defs>
<filter id="filter0_d_166_1056" x="0" y="0" width="36" height="36" filterUnits="userSpaceOnUse" color-interpolation-filters="sRGB">
<feFlood flood-opacity="0" result="BackgroundImageFix"/>
<feColorMatrix in="SourceAlpha" type="matrix" values="0 0 0 0 0 0 0 0 0 0 0 0 0 0 0 0 0 0 127 0" result="hardAlpha"/>
<feOffset dy="1"/>
<feGaussianBlur stdDeviation="1"/>
<feComposite in2="hardAlpha" operator="out"/>
<feColorMatrix type="matrix" values="0 0 0 0 0 0 0 0 0 0 0 0 0 0 0 0 0 0 0.05 0"/>
<feBlend mode="normal" in2="BackgroundImageFix" result="effect1_dropShadow_166_1056"/>
<feBlend mode="normal" in="SourceGraphic" in2="effect1_dropShadow_166_1056" result="shape"/>
</filter>
</defs>
</svg>
