<svg width="14" height="14" viewBox="0 0 14 14" fill="none" xmlns="http://www.w3.org/2000/svg">
<path d="M7.5 13.5V12H9V13.5H7.5ZM6 12V8.25H7.5V12H6ZM12 9.75V6.75H13.5V9.75H12ZM10.5 6.75V5.25H12V6.75H10.5ZM1.5 8.25V6.75H3V8.25H1.5ZM0 6.75V5.25H1.5V6.75H0ZM6.75 1.5V0H8.25V1.5H6.75ZM1.125 3.375H3.375V1.125H1.125V3.375ZM0 4.5V0H4.5V4.5H0ZM1.125 12.375H3.375V10.125H1.125V12.375ZM0 13.5V9H4.5V13.5H0ZM10.125 3.375H12.375V1.125H10.125V3.375ZM9 4.5V0H13.5V4.5H9ZM10.5 13.5V11.25H9V9.75H12V12H13.5V13.5H10.5ZM7.5 8.25V6.75H10.5V8.25H7.5ZM4.5 8.25V6.75H3V5.25H7.5V6.75H6V8.25H4.5ZM5.25 4.5V1.5H6.75V3H8.25V4.5H5.25ZM1.6875 2.8125V1.6875H2.8125V2.8125H1.6875ZM1.6875 11.8125V10.6875H2.8125V11.8125H1.6875ZM10.6875 2.8125V1.6875H11.8125V2.8125H10.6875Z" fill="#584235"/>
</svg>
